<?xml version="1.0" encoding="UTF-8"?>
<!-- Generated by Pixelmator Pro 3.7 -->
<svg width="441" height="248" viewBox="0 0 441 248" xmlns="http://www.w3.org/2000/svg">
    <linearGradient id="linearGradient1" x1="0.5" y1="124.661163" x2="438.880371" y2="124.661163" gradientUnits="userSpaceOnUse">
        <stop offset="0" stop-color="#9a86ef" stop-opacity="1"/>
        <stop offset="1" stop-color="#faa7a7" stop-opacity="1"/>
    </linearGradient>
    <path id="Shape-copy" fill="url(#linearGradient1)" fill-rule="evenodd" stroke="none" d="M 110.640289 140.852051 C 103.116119 125.854187 99.778961 117.900024 98.370056 113.5 C 96.961182 109.099976 95.192261 102.125 94.439117 98 C 93.685974 93.875 93.06073 85.549988 93.049683 79.5 C 93.038025 73.137695 93.66275 65.813965 94.531403 62.129028 C 95.357391 58.625 97.215424 52.775024 98.660339 49.129028 C 100.105255 45.483093 103.176666 39.575012 105.485687 36 C 107.794708 32.424988 113.242554 26.125 117.591949 22 C 121.941376 17.875 128.314667 13.009949 131.754822 11.188782 C 135.194977 9.367615 141.223053 6.784607 145.150513 5.448792 C 149.078003 4.112976 156.101959 2.546509 160.759338 1.967773 C 166.59552 1.242554 172.066772 1.232605 178.363647 1.935791 C 183.388641 2.496948 189.974243 3.691589 192.998322 4.590515 C 196.02243 5.489441 201.517761 7.746399 205.210205 9.605835 C 208.902649 11.465332 215.517731 15.912109 219.91037 19.487488 L 227.897003 25.988281 L 233.686707 20.921814 C 236.871063 18.135315 242.064514 14.283203 245.227722 12.361694 C 248.390869 10.440125 254.550781 7.564453 258.916321 5.971191 C 263.281799 4.377991 270.824036 2.580444 275.676819 1.976685 C 280.54425 1.371094 287.799194 1.187439 291.858704 1.567139 C 295.905945 1.945618 302.417908 3.078613 306.32959 4.084778 C 310.241333 5.091003 316.677856 7.51355 320.632935 9.468262 C 324.588013 11.422974 330.901062 15.431274 334.661987 18.375671 C 338.422913 21.320068 343.574097 26.377563 346.109131 29.614563 C 348.644165 32.851563 352.103516 37.974976 353.79657 41 C 355.489624 44.025024 358.087524 50.099976 359.56958 54.5 C 361.680725 60.767334 362.377747 65.098938 362.787964 74.5 C 363.094177 81.516907 362.81543 89.955811 362.11676 94.822021 C 361.459595 99.399109 359.761292 106.824097 358.342773 111.322021 C 356.924194 115.819885 354.200562 122.608154 352.290161 126.406982 C 350.379822 130.205811 348.584839 133.918274 348.301392 134.656982 C 347.879028 135.757568 352.034973 136 371.32489 136 C 394.863831 136 394.863831 136 396.858337 133.198975 C 397.955261 131.658447 401.248413 129.080994 404.176392 127.471436 C 408.373962 125.163879 410.769104 124.540894 415.5 124.526062 C 420.279907 124.511047 422.462463 125.072266 426.233093 127.285889 C 428.836304 128.814087 432.207336 131.619995 433.724304 133.521118 C 435.241272 135.422302 437.014648 138.445251 437.665161 140.238892 C 438.315613 142.032471 438.862305 145.525024 438.880005 148 C 438.897705 150.474976 438.309692 154.188416 437.573242 156.252014 C 436.836792 158.315674 434.992188 161.632507 433.474121 163.622864 C 431.842957 165.761353 428.473755 168.267212 425.237427 169.74884 C 420.73761 171.80896 418.741028 172.163635 414.042603 171.737549 C 410.897522 171.452393 406.930176 170.498108 405.226196 169.617004 C 403.522278 168.73584 399.988464 165.53656 397.373352 162.507446 C 392.61853 157 392.61853 157 363.889526 157 C 335.160461 157 335.160461 157 330.235779 163.75 C 327.527222 167.462524 321.482727 174.775024 316.803589 180 C 312.124451 185.224976 304.289795 193.325012 299.393188 198 C 294.496643 202.674988 285.317505 210.828796 278.995178 216.119507 C 272.672852 221.410217 262.325012 229.460815 256 234.009644 C 249.674988 238.558533 241.799988 243.566895 238.5 245.139374 C 234.876007 246.866241 230.915985 247.980225 228.5 247.952423 C 226.299988 247.927155 222.459656 247.10788 219.965912 246.131836 C 217.472137 245.155792 211.622131 241.814484 206.965912 238.706757 C 202.309662 235.598999 193.715973 229.331116 187.868835 224.778137 C 182.021667 220.225159 172.258179 212.070862 166.17215 206.65741 C 160.086121 201.243958 151.359894 192.919006 146.780548 188.15741 C 142.201202 183.395813 136.214722 176.788574 133.477234 173.47467 C 130.739746 170.160767 127.819092 166.409485 126.986877 165.138611 C 125.473724 162.82782 125.473724 162.82782 85.986877 162.952637 C 46.5 163.077454 46.5 163.077454 42.5 166.985535 C 40.299988 169.134949 36.475006 171.807617 34 172.924805 C 31.524994 174.041992 27.419067 174.965942 24.875732 174.978027 C 22.332367 174.990112 18.282379 174.305725 15.875732 173.457153 C 13.469086 172.608582 9.861023 170.314636 7.857849 168.359497 C 5.854645 166.404358 3.379669 162.950745 2.357849 160.684753 C 1.150208 158.006714 0.5 154.251099 0.5 149.953979 C 0.5 144.340759 0.956696 142.604431 3.526428 138.447998 C 5.402313 135.413879 8.413879 132.402283 11.448029 130.526428 C 15.62619 127.943237 17.327972 127.5 23.067139 127.5 C 27.920105 127.5 31.029358 128.101563 34.240936 129.661865 C 36.688324 130.850891 40.672821 134.001465 43.095367 136.663208 C 47.5 141.502625 47.5 141.502625 79.07016 141.177307 L 110.640289 140.852051 Z M 229.920502 222.439697 C 231.25177 222.129822 236.201782 219.228699 240.920502 215.992798 C 245.639221 212.756836 255.575012 205.294861 263 199.410583 C 270.424988 193.526367 282.174072 183.039307 289.109009 176.106018 C 296.043945 169.172668 303.166687 161.474976 304.937317 159 C 308.156677 154.5 308.156677 154.5 298.828369 153.951233 C 293.697754 153.649414 288.176025 153.662537 286.557861 153.980408 C 284.037964 154.475403 282.818237 156.036438 278.057861 164.858948 C 275.001038 170.524292 270.986267 176.954407 269.13623 179.148071 C 267.286133 181.341736 263.745972 184.118347 261.269165 185.318298 C 257.985901 186.908936 255.042908 187.475037 250.405518 187.407837 C 245.217102 187.332703 243.16571 186.774536 239.272552 184.378723 C 236.647644 182.763367 233.105316 179.367981 231.400696 176.833435 C 229.696075 174.29895 224.661072 163.062012 220.211792 151.86261 C 215.762512 140.663147 210.241394 126.549988 207.942688 120.5 C 205.643951 114.450012 202.73056 108.424316 201.468506 107.10968 C 200.149414 105.735535 198.532379 104.965454 197.665039 105.298279 C 196.835205 105.61676 195.043671 107.817383 193.683868 110.18866 C 192.324066 112.559875 187.93631 121.624451 183.933258 130.332092 C 179.930237 139.039734 175.146576 148.139771 173.302887 150.554382 C 171.459167 152.968994 167.970947 156.104797 165.551208 157.522827 C 163.1315 158.940918 159.542603 160.362244 157.575867 160.681396 C 155.609131 161.000549 154 161.69342 154 162.221069 C 154 162.748718 159.0625 168.206787 165.25 174.350098 C 171.4375 180.493347 181.674988 189.836304 188 195.112244 C 194.325012 200.388123 203.887024 207.942993 209.248932 211.900818 C 214.61084 215.858643 220.910828 219.975708 223.248932 221.049927 C 225.709381 222.180359 228.519562 222.765747 229.920502 222.439697 Z M 252.058411 164 C 253.171631 164 254.985168 162.432007 256.395569 160.25 C 257.72876 158.1875 260.269958 153.575012 262.042725 150 C 263.81543 146.424988 266.519226 141.672424 268.051086 139.438782 C 269.643005 137.117554 272.478027 134.649841 274.668152 133.679138 C 277.835327 132.275269 282.355103 131.938965 300.723633 131.740356 C 321.464661 131.516052 323.075989 131.366577 324.876526 129.5 C 325.937622 128.400024 328.263733 124.575012 330.045593 121 C 331.827515 117.424988 334.374146 111.349976 335.704773 107.5 C 337.0354 103.650024 338.771179 97.197937 339.562012 93.162048 C 340.352905 89.12616 340.992188 83.276123 340.982666 80.162048 C 340.973083 77.047913 340.318115 71.445923 339.527161 67.713135 C 338.736206 63.980347 336.67981 58.063721 334.957397 54.565002 C 333.234985 51.066284 329.509399 45.604858 326.678345 42.428467 C 323.84729 39.252075 318.877441 34.938171 315.634277 32.842041 C 312.391113 30.74585 306.569092 28.011414 302.696411 26.765442 C 297.203308 24.998108 293.329468 24.5 285.077576 24.5 C 276.790527 24.5 273.123657 24.974731 268.143982 26.6922 C 264.648193 27.897888 259.279968 30.372864 256.2146 32.1922 C 253.149231 34.011475 246.885864 39.325012 242.296082 44 C 237.706329 48.674988 232.606323 53.066162 230.962738 53.758057 C 228.515076 54.788574 227.388794 54.763062 224.737213 53.617065 C 222.956757 52.847595 218.575012 49.205444 215 45.523376 C 211.424988 41.841309 205.640869 36.76947 202.146362 34.252625 C 198.651855 31.735779 192.814026 28.595337 189.173431 27.273865 C 185.274506 25.858643 179.255188 24.65155 174.527069 24.336792 C 169.178772 23.980774 164.079803 24.318176 159.247711 25.3479 C 155.258942 26.197876 148.733948 28.603027 144.747711 30.692688 C 140.459381 32.940674 135.050079 36.943604 131.5 40.496155 C 128.200012 43.798401 124.022278 49.291748 122.216187 52.703552 C 120.410095 56.115356 118.269562 61.065308 117.459442 63.70343 C 116.649323 66.341553 115.699982 71.745056 115.349792 75.711182 C 114.973907 79.968384 115.227509 86.113037 115.968872 90.711182 C 116.659546 94.995056 118.475342 102.178162 120.003998 106.673706 C 121.532623 111.16925 124.969574 119.026489 127.641663 124.134155 C 130.313751 129.241882 134.393494 135.411865 136.707764 137.845276 C 140.718262 142.062256 141.127747 142.245728 145.443329 141.759277 C 147.933624 141.478577 151.079834 140.522522 152.434875 139.634644 C 153.789917 138.746765 156.674957 134.978271 158.846039 131.260193 C 161.017151 127.542053 165.370178 118.875 168.519501 112 C 171.668793 105.125 175.752167 97.164124 177.593658 94.309204 C 179.721191 91.010803 182.677185 88.10144 185.701843 86.328857 C 189.2771 84.233582 192.10321 83.446533 197.056183 83.166687 C 202.23996 82.873779 204.755615 83.26947 208.816895 85.016602 C 211.658417 86.238953 215.49472 88.912109 217.342041 90.956848 C 219.189392 93.001648 221.837616 97.110352 223.22702 100.08728 C 224.616425 103.06427 227.103455 109.325012 228.753784 114 C 230.404114 118.674988 233.40332 126.887146 235.418701 132.249207 C 237.434082 137.611267 240.681244 145.816345 242.634644 150.482727 C 244.588013 155.149109 247.076965 160.099426 248.16571 161.483521 C 249.254395 162.867554 251.006104 164 252.058411 164 Z"/>
</svg>
