<?xml version="1.0" encoding="UTF-8"?>
<!-- Generated by Pixelmator Pro 3.7 -->
<svg width="731" height="499" viewBox="0 0 731 499" xmlns="http://www.w3.org/2000/svg">
    <path id="Shape" fill="#4d3c78" fill-rule="evenodd" stroke="none" d="M 668.5 483.216278 C 664.650024 483.481232 659.700012 483.51532 657.5 483.292084 C 655.299988 483.068817 650.799988 482.203064 647.5 481.368164 C 644.200012 480.533234 638.789307 478.34375 635.476196 476.502625 C 632.163086 474.661499 626.927917 470.508423 623.842407 467.273621 C 620.756897 464.038788 617.088257 459.134247 615.68988 456.374664 C 614.291443 453.615051 612.439148 448.62439 611.573669 445.284271 C 610.70813 441.944122 610.006653 435.67627 610.014771 431.355652 C 610.022888 427.035034 610.700562 420.653778 611.52063 417.175049 C 612.340759 413.69632 614.246582 408.306793 615.755859 405.198303 C 617.265137 402.089813 621.364624 396.501099 624.865784 392.778931 C 629.159851 388.213806 633.227905 385.040192 637.365784 383.027283 C 640.739624 381.386047 646.182068 379.358521 649.460083 378.521606 C 652.738159 377.684723 658.17865 377 661.55011 377 C 664.921631 377 671.128723 377.882019 675.343811 378.960052 C 679.558838 380.038086 685.143311 382.161499 687.753784 383.678772 C 690.364197 385.196045 694.819519 388.741699 697.654419 391.557953 C 700.48938 394.374237 704.166565 399.368042 705.825989 402.655304 C 707.485413 405.942566 709.553406 412.070953 710.42157 416.273926 C 711.289673 420.476898 712 426.339905 712 429.302856 C 712 433.251862 711.51178 435.131836 710.171265 436.345001 C 708.537598 437.823456 704.316772 438 670.603882 438 C 632.865234 438 632.865234 438 633.529053 440.25 C 633.894165 441.487488 635.20343 444.761749 636.438599 447.526093 C 637.769104 450.503845 640.648926 454.281464 643.505005 456.795471 C 646.611938 459.530334 650.28363 461.608002 653.833435 462.639954 C 657.547241 463.719574 661.664917 464.09198 666.475281 463.783264 C 671.176819 463.481537 675.481689 462.468292 679.100342 460.811615 C 682.120361 459.428986 686.281189 456.813965 688.34668 455.000458 C 690.41217 453.18692 693.142395 451.504272 694.413818 451.26123 C 695.685242 451.018188 698.557556 451.753937 700.796692 452.896271 C 703.035828 454.038605 705.572571 455.97937 706.433899 457.209106 C 707.295288 458.438873 708 460.266327 708 461.270111 C 708 462.273926 705.821167 465.274048 703.158203 467.937042 C 700.495178 470.600037 695.88269 474.183289 692.908203 475.899841 C 689.933716 477.616364 684.799988 479.856415 681.5 480.877716 C 678.200012 481.899017 672.349976 482.951355 668.5 483.216278 Z M 329.5 482.707977 C 321.98822 482.887878 316.75589 482.488434 313 481.448364 C 309.975006 480.610687 305.102112 478.479614 302.171356 476.712646 C 299.24057 474.945709 294.38736 470.929413 291.386414 467.787598 C 288.319 464.576233 284.623566 459.283203 282.945953 455.698181 C 281.304657 452.190796 279.407867 446.665863 278.730896 443.420532 C 278.053894 440.175232 277.527283 433.465454 277.560638 428.509979 C 277.602783 422.244019 278.28479 417.331573 279.799927 412.379974 C 280.998199 408.463959 283.789154 402.548645 286.002014 399.234863 C 288.214874 395.921051 291.806366 391.600769 293.983124 389.634216 C 296.159851 387.667664 300.651031 384.690552 303.963501 383.018433 C 307.276001 381.346283 312.558838 379.308075 315.703186 378.489105 C 318.847534 377.670105 324.156097 377 327.5 377 C 330.843903 377 336.228149 377.689819 339.465027 378.532898 C 342.701904 379.376007 347.467041 381.217926 350.05423 382.626038 C 352.641418 384.034149 356.190369 386.494354 357.940826 388.09314 C 359.691254 389.691895 361.545654 391 362.061707 391 C 362.619293 391 363 381.527954 363 367.654999 C 363 346.308716 363.156586 344.168274 364.828735 342.654999 C 366.195862 341.417755 368.593872 341 374.328735 341 C 380.666687 341 382.347595 341.347626 384 343 C 385.959167 344.959137 386 346.333344 386 410.277496 C 386 467.740265 385.81366 475.821045 384.443298 477.777496 C 383.056824 479.756989 382.018066 480 374.943298 480 C 368.333344 480 366.664276 479.664276 365 478 C 363.867676 476.867676 363 474.666656 363 472.926666 C 363 470.880859 362.557526 469.961456 361.676575 470.176666 C 360.9487 470.354492 358.51236 471.969696 356.262482 473.765991 C 354.012604 475.562286 349.545624 478.249817 346.335907 479.738251 C 341.284149 482.080902 339.022003 482.479919 329.5 482.707977 Z M 29.928574 480 C 23.333328 480 21.663666 479.663666 20 478 C 18.04071 476.04071 18 474.666656 18 410.5 C 18 346.333344 18.04071 344.95929 20 343 C 21.66008 341.339905 23.333328 341 29.845016 341 C 36.548737 341 37.967163 341.306061 39.595016 343.103821 C 41.38295 345.078339 41.517532 347.438324 41.785324 381.510376 C 42.022491 411.685181 42.309326 417.904724 43.484573 418.355713 C 44.387222 418.702087 48.59053 414.848663 55.108765 407.699127 C 60.724426 401.539612 68.527954 393.012512 72.449951 388.75 C 79.580856 381 79.580856 381 89.590424 381 C 96.042313 381 100.02652 381.426514 100.800003 382.200012 C 101.460007 382.859985 102 384.408875 102 385.641937 C 102 387.155914 96.266113 394.110321 84.340378 407.060577 C 67.341293 425.52002 66.733475 426.323792 68.090378 428.549408 C 68.865677 429.821045 74.899994 437.266052 81.5 445.093811 C 88.100006 452.9216 95.975006 462.200531 99 465.713654 C 102.024994 469.226776 104.648666 473.015503 104.830353 474.133026 C 105.012054 475.25058 104.379807 477.027832 103.425369 478.082458 C 101.962982 479.698395 100.292679 480 92.80629 480 C 83.922562 480 83.922562 480 80.083664 476.25 C 77.97226 474.1875 70.588135 465.625763 63.674469 457.223938 C 56.760803 448.822113 50.026978 440.571503 48.710403 438.889221 C 47.393829 437.20694 45.457886 435.756165 44.408325 435.665283 C 42.604919 435.509094 42.487305 436.462097 42.269089 453 C 42.142075 462.625 41.786896 471.948029 41.479797 473.717865 C 41.172699 475.487671 40.231964 477.625183 39.389282 478.467865 C 38.270752 479.586395 35.716797 480 29.928574 480 Z M 132.78894 479.98468 C 126.132843 479.997894 124.79895 479.700592 123.03894 477.811432 C 121.049225 475.67569 121 474.529205 121 430.311432 C 121 386.333344 121.058838 384.941162 123 383 C 124.666656 381.333344 126.333344 381 133 381 C 139.666656 381 141.333344 381.333344 143 383 C 144.940155 384.940155 145 386.333344 145 429.565735 C 145 461.211639 144.666687 474.764709 143.850281 476.315735 C 143.217957 477.51709 142.205444 478.830597 141.600281 479.23468 C 140.995148 479.638763 137.030029 479.976257 132.78894 479.98468 Z M 178.5 480 C 172.333344 480 170.64444 479.64444 169 478 C 167.058167 476.058167 167 474.666656 167 430.154999 C 167 387.011078 167.107758 384.212463 168.828735 382.654999 C 170.188965 381.424011 172.583099 381 178.173767 381 C 184.077362 381 186.02124 381.375458 187.233704 382.75 C 188.082764 383.712494 189.091919 385.979248 189.476318 387.787201 C 190.175262 391.074402 190.175262 391.074402 194.217621 387.422363 C 196.440918 385.413757 200.655609 382.673584 203.583557 381.333099 C 206.511536 379.992645 211.59137 378.396698 214.87204 377.786591 C 219.25882 376.970795 222.63205 376.974792 227.622162 377.801666 C 231.354065 378.420074 237.183441 380.292633 240.576294 381.962952 C 243.999908 383.648376 248.621796 387.035767 250.962158 389.574799 C 253.281525 392.091003 256.25174 396.492493 257.562653 399.355865 C 258.873566 402.219269 260.399323 407.69809 260.953247 411.531036 C 261.507172 415.363953 261.969299 431.337372 261.980194 447.027496 C 261.997009 471.250824 261.765137 475.89032 260.443298 477.777496 C 259.047546 479.770203 258.029572 480 250.598297 480 C 243.951202 480 242.008545 479.653473 240.78775 478.25 C 239.530579 476.804688 239.158173 471.330811 238.648895 446.811035 C 238.203003 425.345337 237.644287 415.996094 236.631653 413.056915 C 235.861359 410.821075 234.079498 407.481934 232.671997 405.636597 C 231.264496 403.79126 228.399994 401.430634 226.306458 400.390717 C 223.582306 399.037598 220.345184 398.5 214.92157 398.5 C 208.231384 398.5 206.76944 398.854706 202.448029 401.526428 C 199.515778 403.339294 196.406219 406.407532 194.693298 409.178131 C 193.120544 411.722015 191.431885 415.535126 190.940704 417.651672 C 190.449554 419.76825 190.036987 433.762512 190.023865 448.75 C 190.00119 474.649567 189.900879 476.099121 188 478 C 186.35556 479.64444 184.666656 480 178.5 480 Z M 421.539368 480 C 415.824097 480 413.70459 479.58136 411.860779 478.088226 C 409.5 476.176483 409.5 476.176483 409.5 410.007538 C 409.5 345.661621 409.553467 343.799469 411.441101 342.419281 C 412.691833 341.504791 415.942444 341 420.580322 341 C 426.176697 341 428.303772 341.425262 430.139221 342.911133 C 432.5 344.822296 432.5 344.822296 432.790588 408.661133 C 432.950378 443.772522 432.837219 473.481018 432.539063 474.680084 C 432.240906 475.87912 431.290527 477.56662 430.427063 478.430084 C 429.28656 479.570587 426.855591 480 421.539368 480 Z M 466.722534 480 C 461.754272 480 458.739807 479.506042 457.222534 478.443298 C 455 476.886597 455 476.886597 455 429.978485 C 455 384.625275 455.064087 383.036041 456.934265 382.035187 C 457.998108 381.46582 462.273071 381 466.434265 381 C 472.666687 381 474.352478 381.352478 476 383 C 477.941406 384.941406 478 386.333344 478 430.5 C 478 474.666656 477.941406 476.058594 476 478 C 474.366455 479.633575 472.666687 480 466.722534 480 Z M 511.226929 479.98468 C 506.977112 479.976257 503.004883 479.638763 502.399719 479.23468 C 501.794556 478.830597 500.782043 477.51709 500.149719 476.315735 C 499.333313 474.764709 499 461.211639 499 429.565735 C 499 386.333344 499.059814 384.940155 501 383 C 502.62262 381.377411 504.333313 381 510.065735 381 C 513.951904 381 518.001892 381.46582 519.065735 382.035187 C 520.392639 382.745331 521 384.132141 521 386.451843 C 521 388.311676 521.5625 390.026306 522.25 390.262177 C 522.9375 390.498016 525.427612 389.00296 527.78363 386.939819 C 530.139648 384.876648 534.074219 382.245239 536.527161 381.092255 C 538.980042 379.93924 544.065552 378.467957 547.828247 377.822723 C 552.903687 376.952393 556.375977 376.932343 561.280884 377.745117 C 564.917175 378.347687 570.279053 380.031891 573.196167 381.487793 C 576.113281 382.943695 580.14093 385.725433 582.146545 387.669373 C 584.152161 389.613342 586.952698 393.334473 588.370056 395.938568 C 589.787354 398.542664 591.627258 403.559265 592.45874 407.086639 C 593.636597 412.083771 593.973694 420.400726 593.985229 444.75 C 593.99939 474.677155 593.915344 476.084656 592 478 C 590.364868 479.635132 588.666687 480 582.691101 480 C 577.96228 480 574.697021 479.499542 573.441101 478.582245 C 571.612854 477.246948 571.469727 475.371613 570.979431 446.332245 C 570.529053 419.65863 570.218445 414.96048 568.676392 411.5 C 567.696045 409.299988 565.680298 406.20575 564.19696 404.623901 C 562.713623 403.042053 559.700012 400.914429 557.5 399.895874 C 555.107605 398.788208 551.289551 398.052734 548 398.065857 C 544.974976 398.077911 540.700012 398.718903 538.5 399.490265 C 536.163635 400.309418 532.615845 402.924194 529.969727 405.777161 C 527.478027 408.463623 524.818237 412.425262 524.059082 414.580811 C 523.052734 417.438049 522.567993 426.222443 522.270081 447 C 521.944519 469.705353 521.565857 475.957458 520.407654 477.75 C 519.104858 479.766357 518.15155 479.998413 511.226929 479.98468 Z M 333.094116 462.673187 C 337.324371 462.426941 341.626129 461.39743 345.094116 459.801331 C 348.067352 458.432922 352.342407 455.303925 354.594208 452.848022 C 356.846039 450.39209 359.544739 446.159088 360.591339 443.441345 C 361.810425 440.275665 362.49527 435.976563 362.497131 431.477722 C 362.498749 427.529083 361.722565 421.983032 360.723816 418.806732 C 359.586395 415.189484 357.382233 411.416962 354.594879 408.316742 C 352.200836 405.654022 348.095978 402.403595 345.472961 401.093597 C 342.380676 399.549225 338.250763 398.536255 333.727142 398.212585 C 328.705414 397.853302 325.196655 398.203217 321.205383 399.461365 C 317.108765 400.752686 314.286163 402.583405 310.399933 406.469635 C 306.023163 410.846405 304.769501 412.948425 302.936279 418.983856 C 301.237122 424.578033 300.86795 427.640564 301.322845 432.368866 C 301.647278 435.740997 302.662781 440.676086 303.579559 443.335754 C 304.585419 446.253845 307.279541 450.349304 310.37323 453.663208 C 314.151794 457.710724 316.94635 459.667969 321 461.105957 C 324.988708 462.520905 328.311951 462.951569 333.094116 462.673187 Z M 661.410645 421 C 689.038086 421 689.038086 421 688.391846 418.25 C 688.036377 416.737488 686.579651 413.313538 685.154602 410.641205 C 683.729614 407.968872 680.865295 404.328613 678.789429 402.551758 C 676.713562 400.774902 673.272034 398.798859 671.141541 398.160553 C 669.011108 397.522247 664.152832 397 660.345398 397 C 655.408447 397 652.303162 397.570862 649.519104 398.990265 C 647.372009 400.0849 644.121948 402.427917 642.296814 404.19693 C 640.471619 405.965973 638.109619 409.232849 637.047852 411.456665 C 635.986084 413.680511 634.817139 416.737488 634.450256 418.25 C 633.783203 421 633.783203 421 661.410645 421 Z M 132.282104 367.998444 C 130.751953 367.997589 127.93396 367.210083 126.019928 366.248444 C 124.105896 365.286804 121.518402 362.970947 120.269928 361.102112 C 118.728729 358.795074 118.00119 356.226807 118.003723 353.102112 C 118.006042 350.275696 118.7742 347.242493 119.994598 345.240845 C 121.087524 343.448334 123.448334 341.087524 125.240845 339.994598 C 127.218201 338.789001 130.269806 338.007477 133 338.007477 C 135.756866 338.007477 138.785278 338.791077 140.818024 340.030396 C 142.851654 341.270264 144.913544 343.811005 146.144562 346.593903 C 147.625336 349.941467 147.976959 352.17691 147.482788 355.101929 C 147.114105 357.284058 145.638184 360.464966 144.202942 362.170685 C 142.76767 363.876373 140.124329 365.885773 138.328796 366.635986 C 136.533295 367.3862 133.812286 367.999298 132.282104 367.998444 Z M 466.799683 367.998444 C 464.984863 367.997589 461.93396 367.210083 460.019958 366.248444 C 458.105896 365.286804 455.518372 362.970947 454.269958 361.102112 C 452.728699 358.795074 452.001221 356.226807 452.003723 353.102112 C 452.006042 350.275696 452.77417 347.242493 453.994568 345.240845 C 455.087524 343.448334 457.448303 341.087524 459.240845 339.994598 C 461.179565 338.812561 464.27533 338.005951 466.881958 338.003723 C 469.586609 338.001434 472.557983 338.799774 474.644592 340.089386 C 476.503967 341.238525 478.518982 343.101257 479.122437 344.22876 C 479.72583 345.356262 480.613892 347.653717 481.095886 349.334229 C 481.639893 351.231171 481.564392 353.927246 480.896667 356.444855 C 480.305115 358.675171 478.848877 361.555267 477.660583 362.845001 C 476.47229 364.134766 474.284851 365.822266 472.799683 366.595001 C 471.314453 367.367767 468.614502 367.999298 466.799683 367.998444 Z"/>
    <linearGradient id="linearGradient1" x1="130.5" y1="139.661163" x2="568.880371" y2="139.661163" gradientUnits="userSpaceOnUse">
        <stop offset="0" stop-color="#9a86ef" stop-opacity="1"/>
        <stop offset="1" stop-color="#faa7a7" stop-opacity="1"/>
    </linearGradient>
    <path id="path1" fill="url(#linearGradient1)" fill-rule="evenodd" stroke="none" d="M 240.640289 155.852051 C 233.116119 140.854187 229.778961 132.900024 228.370056 128.5 C 226.961182 124.099976 225.192261 117.125 224.439117 113 C 223.685974 108.875 223.06073 100.549988 223.049683 94.5 C 223.038025 88.137695 223.66275 80.813965 224.531403 77.129028 C 225.357391 73.625 227.215424 67.775024 228.660339 64.129028 C 230.105255 60.483093 233.176666 54.575012 235.485687 51 C 237.794708 47.424988 243.242554 41.125 247.591949 37 C 251.941376 32.875 258.314667 28.009949 261.754822 26.188782 C 265.194977 24.367615 271.223053 21.784607 275.150513 20.448792 C 279.078003 19.112976 286.101959 17.546509 290.759338 16.967773 C 296.59552 16.242554 302.066772 16.232605 308.363647 16.935791 C 313.388641 17.496948 319.974243 18.691589 322.998322 19.590515 C 326.02243 20.489441 331.517761 22.746399 335.210205 24.605835 C 338.902649 26.465332 345.517731 30.912109 349.91037 34.487488 L 357.897003 40.988281 L 363.686707 35.921814 C 366.871063 33.135315 372.064514 29.283203 375.227722 27.361694 C 378.390869 25.440125 384.550781 22.564453 388.916321 20.971191 C 393.281799 19.377991 400.824036 17.580444 405.676819 16.976685 C 410.54425 16.371094 417.799194 16.187439 421.858704 16.567139 C 425.905945 16.945618 432.417908 18.078613 436.32959 19.084778 C 440.241333 20.091003 446.677856 22.51355 450.632935 24.468262 C 454.588013 26.422974 460.901062 30.431274 464.661987 33.375671 C 468.422913 36.320068 473.574097 41.377563 476.109131 44.614563 C 478.644165 47.851563 482.103516 52.974976 483.79657 56 C 485.489624 59.025024 488.087524 65.099976 489.56958 69.5 C 491.680725 75.767334 492.377747 80.098938 492.787964 89.5 C 493.094177 96.516907 492.81543 104.955811 492.11676 109.822021 C 491.459595 114.399109 489.761292 121.824097 488.342773 126.322021 C 486.924194 130.819885 484.200562 137.608154 482.290161 141.406982 C 480.379822 145.205811 478.584839 148.918274 478.301392 149.656982 C 477.879028 150.757568 482.034973 151 501.32489 151 C 524.863831 151 524.863831 151 526.858337 148.198975 C 527.955261 146.658447 531.248413 144.080994 534.176392 142.471436 C 538.373962 140.163879 540.769104 139.540894 545.5 139.526062 C 550.279907 139.511047 552.462463 140.072266 556.233093 142.285889 C 558.836304 143.814087 562.207336 146.619995 563.724304 148.521118 C 565.241272 150.422302 567.014648 153.445251 567.665161 155.238892 C 568.315613 157.032471 568.862305 160.525024 568.880005 163 C 568.897705 165.474976 568.309692 169.188416 567.573242 171.252014 C 566.836792 173.315674 564.992188 176.632507 563.474121 178.622864 C 561.842957 180.761353 558.473755 183.267212 555.237427 184.74884 C 550.73761 186.80896 548.741028 187.163635 544.042603 186.737549 C 540.897522 186.452393 536.930176 185.498108 535.226196 184.617004 C 533.522278 183.73584 529.988464 180.53656 527.373352 177.507446 C 522.61853 172 522.61853 172 493.889526 172 C 465.160461 172 465.160461 172 460.235779 178.75 C 457.527222 182.462524 451.482727 189.775024 446.803589 195 C 442.124451 200.224976 434.289795 208.325012 429.393188 213 C 424.496643 217.674988 415.317505 225.828796 408.995178 231.119507 C 402.672852 236.410217 392.325012 244.460815 386 249.009644 C 379.674988 253.558533 371.799988 258.566895 368.5 260.139374 C 364.876007 261.866241 360.915985 262.980225 358.5 262.952423 C 356.299988 262.927155 352.459656 262.10788 349.965912 261.131836 C 347.472137 260.155792 341.622131 256.814484 336.965912 253.706757 C 332.309662 250.598999 323.715973 244.331116 317.868835 239.778137 C 312.021667 235.225159 302.258179 227.070862 296.17215 221.65741 C 290.086121 216.243958 281.359894 207.919006 276.780548 203.15741 C 272.201202 198.395813 266.214722 191.788574 263.477234 188.47467 C 260.739746 185.160767 257.819092 181.409485 256.986877 180.138611 C 255.473724 177.82782 255.473724 177.82782 215.986877 177.952637 C 176.5 178.077454 176.5 178.077454 172.5 181.985535 C 170.299988 184.134949 166.475006 186.807617 164 187.924805 C 161.524994 189.041992 157.419067 189.965942 154.875732 189.978027 C 152.332367 189.990112 148.282379 189.305725 145.875732 188.457153 C 143.469086 187.608582 139.861023 185.314636 137.857849 183.359497 C 135.854645 181.404358 133.379669 177.950745 132.357849 175.684753 C 131.150208 173.006714 130.5 169.251099 130.5 164.953979 C 130.5 159.340759 130.956696 157.604431 133.526428 153.447998 C 135.402313 150.413879 138.413879 147.402283 141.448029 145.526428 C 145.62619 142.943237 147.327972 142.5 153.067139 142.5 C 157.920105 142.5 161.029358 143.101563 164.240936 144.661865 C 166.688324 145.850891 170.672821 149.001465 173.095367 151.663208 C 177.5 156.502625 177.5 156.502625 209.07016 156.177307 L 240.640289 155.852051 Z M 359.920502 237.439697 C 361.25177 237.129822 366.201782 234.228699 370.920502 230.992798 C 375.639221 227.756836 385.575012 220.294861 393 214.410583 C 400.424988 208.526367 412.174072 198.039307 419.109009 191.106018 C 426.043945 184.172668 433.166687 176.474976 434.937317 174 C 438.156677 169.5 438.156677 169.5 428.828369 168.951233 C 423.697754 168.649414 418.176025 168.662537 416.557861 168.980408 C 414.037964 169.475403 412.818237 171.036438 408.057861 179.858948 C 405.001038 185.524292 400.986267 191.954407 399.13623 194.148071 C 397.286133 196.341736 393.745972 199.118347 391.269165 200.318298 C 387.985901 201.908936 385.042908 202.475037 380.405518 202.407837 C 375.217102 202.332703 373.16571 201.774536 369.272552 199.378723 C 366.647644 197.763367 363.105316 194.367981 361.400696 191.833435 C 359.696075 189.29895 354.661072 178.062012 350.211792 166.86261 C 345.762512 155.663147 340.241394 141.549988 337.942688 135.5 C 335.643951 129.450012 332.73056 123.424316 331.468506 122.10968 C 330.149414 120.735535 328.532379 119.965454 327.665039 120.298279 C 326.835205 120.61676 325.043671 122.817383 323.683868 125.18866 C 322.324066 127.559875 317.93631 136.624451 313.933258 145.332092 C 309.930237 154.039734 305.146576 163.139771 303.302887 165.554382 C 301.459167 167.968994 297.970947 171.104797 295.551208 172.522827 C 293.1315 173.940918 289.542603 175.362244 287.575867 175.681396 C 285.609131 176.000549 284 176.69342 284 177.221069 C 284 177.748718 289.0625 183.206787 295.25 189.350098 C 301.4375 195.493347 311.674988 204.836304 318 210.112244 C 324.325012 215.388123 333.887024 222.942993 339.248932 226.900818 C 344.61084 230.858643 350.910828 234.975708 353.248932 236.049927 C 355.709381 237.180359 358.519562 237.765747 359.920502 237.439697 Z M 382.058411 179 C 383.171631 179 384.985168 177.432007 386.395569 175.25 C 387.72876 173.1875 390.269958 168.575012 392.042725 165 C 393.81543 161.424988 396.519226 156.672424 398.051086 154.438782 C 399.643005 152.117554 402.478027 149.649841 404.668152 148.679138 C 407.835327 147.275269 412.355103 146.938965 430.723633 146.740356 C 451.464661 146.516052 453.075989 146.366577 454.876526 144.5 C 455.937622 143.400024 458.263733 139.575012 460.045593 136 C 461.827515 132.424988 464.374146 126.349976 465.704773 122.5 C 467.0354 118.650024 468.771179 112.197937 469.562012 108.162048 C 470.352905 104.12616 470.992188 98.276123 470.982666 95.162048 C 470.973083 92.047913 470.318115 86.445923 469.527161 82.713135 C 468.736206 78.980347 466.67981 73.063721 464.957397 69.565002 C 463.234985 66.066284 459.509399 60.604858 456.678345 57.428467 C 453.84729 54.252075 448.877441 49.938171 445.634277 47.842041 C 442.391113 45.74585 436.569092 43.011414 432.696411 41.765442 C 427.203308 39.998108 423.329468 39.5 415.077576 39.5 C 406.790527 39.5 403.123657 39.974731 398.143982 41.6922 C 394.648193 42.897888 389.279968 45.372864 386.2146 47.1922 C 383.149231 49.011475 376.885864 54.325012 372.296082 59 C 367.706329 63.674988 362.606323 68.066162 360.962738 68.758057 C 358.515076 69.788574 357.388794 69.763062 354.737213 68.617065 C 352.956757 67.847595 348.575012 64.205444 345 60.523376 C 341.424988 56.841309 335.640869 51.76947 332.146362 49.252625 C 328.651855 46.735779 322.814026 43.595337 319.173431 42.273865 C 315.274506 40.858643 309.255188 39.65155 304.527069 39.336792 C 299.178772 38.980774 294.079803 39.318176 289.247711 40.3479 C 285.258942 41.197876 278.733948 43.603027 274.747711 45.692688 C 270.459381 47.940674 265.050079 51.943604 261.5 55.496155 C 258.200012 58.798401 254.022278 64.291748 252.216187 67.703552 C 250.410095 71.115356 248.269562 76.065308 247.459442 78.70343 C 246.649323 81.341553 245.699982 86.745056 245.349792 90.711182 C 244.973907 94.968384 245.227509 101.113037 245.968872 105.711182 C 246.659546 109.995056 248.475342 117.178162 250.003998 121.673706 C 251.532623 126.16925 254.969574 134.026489 257.641663 139.134155 C 260.313751 144.241882 264.393494 150.411865 266.707764 152.845276 C 270.718262 157.062256 271.127747 157.245728 275.443329 156.759277 C 277.933624 156.478577 281.079834 155.522522 282.434875 154.634644 C 283.789917 153.746765 286.674957 149.978271 288.846039 146.260193 C 291.017151 142.542053 295.370178 133.875 298.519501 127 C 301.668793 120.125 305.752167 112.164124 307.593658 109.309204 C 309.721191 106.010803 312.677185 103.10144 315.701843 101.328857 C 319.2771 99.233582 322.10321 98.446533 327.056183 98.166687 C 332.23996 97.873779 334.755615 98.26947 338.816895 100.016602 C 341.658417 101.238953 345.49472 103.912109 347.342041 105.956848 C 349.189392 108.001648 351.837616 112.110352 353.22702 115.08728 C 354.616425 118.06427 357.103455 124.325012 358.753784 129 C 360.404114 133.674988 363.40332 141.887146 365.418701 147.249207 C 367.434082 152.611267 370.681244 160.816345 372.634644 165.482727 C 374.588013 170.149109 377.076965 175.099426 378.16571 176.483521 C 379.254395 177.867554 381.006104 179 382.058411 179 Z"/>
</svg>
